<svg id="visual" viewBox="0 0 900 600" width="900" height="600" xmlns="http://www.w3.org/2000/svg" xmlns:xlink="http://www.w3.org/1999/xlink" version="1.1"><path d="M0 67L13.7 70C27.3 73 54.7 79 82 79C109.3 79 136.7 73 163.8 76C191 79 218 91 245.2 87C272.3 83 299.7 63 327 57C354.3 51 381.7 59 409 65C436.3 71 463.7 75 491 80C518.3 85 545.7 91 573 87C600.3 83 627.7 69 654.8 60C682 51 709 47 736.2 49C763.3 51 790.7 59 818 69C845.3 79 872.7 91 886.3 97L900 103L900 0L886.3 0C872.7 0 845.3 0 818 0C790.7 0 763.3 0 736.2 0C709 0 682 0 654.8 0C627.7 0 600.3 0 573 0C545.7 0 518.3 0 491 0C463.7 0 436.3 0 409 0C381.7 0 354.3 0 327 0C299.7 0 272.3 0 245.2 0C218 0 191 0 163.8 0C136.7 0 109.3 0 82 0C54.7 0 27.3 0 13.7 0L0 0Z" fill="#6198ff"></path><path d="M0 127L13.7 137C27.3 147 54.7 167 82 177C109.3 187 136.7 187 163.8 189C191 191 218 195 245.2 185C272.3 175 299.7 151 327 148C354.3 145 381.7 163 409 172C436.3 181 463.7 181 491 183C518.3 185 545.7 189 573 180C600.3 171 627.7 149 654.8 144C682 139 709 151 736.2 153C763.3 155 790.7 147 818 154C845.3 161 872.7 183 886.3 194L900 205L900 101L886.3 95C872.7 89 845.3 77 818 67C790.7 57 763.3 49 736.2 47C709 45 682 49 654.8 58C627.7 67 600.3 81 573 85C545.7 89 518.3 83 491 78C463.7 73 436.3 69 409 63C381.7 57 354.3 49 327 55C299.7 61 272.3 81 245.2 85C218 89 191 77 163.8 74C136.7 71 109.3 77 82 77C54.7 77 27.3 71 13.7 68L0 65Z" fill="#3c80ff"></path><path d="M0 343L13.7 356C27.3 369 54.7 395 82 390C109.3 385 136.7 349 163.8 343C191 337 218 361 245.2 371C272.3 381 299.7 377 327 375C354.3 373 381.7 373 409 378C436.3 383 463.7 393 491 390C518.3 387 545.7 371 573 365C600.3 359 627.7 363 654.8 369C682 375 709 383 736.2 370C763.3 357 790.7 323 818 324C845.3 325 872.7 361 886.3 379L900 397L900 203L886.3 192C872.7 181 845.3 159 818 152C790.7 145 763.3 153 736.2 151C709 149 682 137 654.8 142C627.7 147 600.3 169 573 178C545.7 187 518.3 183 491 181C463.7 179 436.3 179 409 170C381.7 161 354.3 143 327 146C299.7 149 272.3 173 245.2 183C218 193 191 189 163.8 187C136.7 185 109.3 185 82 175C54.7 165 27.3 145 13.7 135L0 125Z" fill="#0066ff"></path><path d="M0 451L13.7 461C27.3 471 54.7 491 82 492C109.3 493 136.7 475 163.8 472C191 469 218 481 245.2 488C272.3 495 299.7 497 327 505C354.3 513 381.7 527 409 531C436.3 535 463.7 529 491 525C518.3 521 545.7 519 573 521C600.3 523 627.7 529 654.8 523C682 517 709 499 736.2 499C763.3 499 790.7 517 818 520C845.3 523 872.7 511 886.3 505L900 499L900 395L886.3 377C872.7 359 845.3 323 818 322C790.7 321 763.3 355 736.2 368C709 381 682 373 654.8 367C627.7 361 600.3 357 573 363C545.7 369 518.3 385 491 388C463.7 391 436.3 381 409 376C381.7 371 354.3 371 327 373C299.7 375 272.3 379 245.2 369C218 359 191 335 163.8 341C136.7 347 109.3 383 82 388C54.7 393 27.3 367 13.7 354L0 341Z" fill="#0059dd"></path><path d="M0 601L13.7 601C27.3 601 54.7 601 82 601C109.3 601 136.7 601 163.8 601C191 601 218 601 245.2 601C272.3 601 299.7 601 327 601C354.3 601 381.7 601 409 601C436.3 601 463.7 601 491 601C518.3 601 545.7 601 573 601C600.3 601 627.7 601 654.8 601C682 601 709 601 736.2 601C763.3 601 790.7 601 818 601C845.3 601 872.7 601 886.3 601L900 601L900 497L886.3 503C872.7 509 845.3 521 818 518C790.7 515 763.3 497 736.2 497C709 497 682 515 654.8 521C627.7 527 600.3 521 573 519C545.7 517 518.3 519 491 523C463.7 527 436.3 533 409 529C381.7 525 354.3 511 327 503C299.7 495 272.3 493 245.2 486C218 479 191 467 163.8 470C136.7 473 109.3 491 82 490C54.7 489 27.3 469 13.7 459L0 449Z" fill="#004cbb"></path></svg>